<?xml version="1.0" encoding="utf-8"?>
<!-- Generator: Adobe Illustrator 23.0.5, SVG Export Plug-In . SVG Version: 6.00 Build 0)  -->
<svg version="1.1" id="Layer_1" xmlns="http://www.w3.org/2000/svg" xmlns:xlink="http://www.w3.org/1999/xlink" x="0px" y="0px"
	 viewBox="0 0 50 50" style="enable-background:new 0 0 50 50;" xml:space="preserve">
<style type="text/css">
	.st0{fill:#6E83B7;}
	.st1{fill:#80D6FB;}
	.st2{fill:#859CC1;}
	.st3{fill:#FFD3B3;}
	.st4{fill:#46BEE8;}
	.st5{fill:#FCB98B;}
	.st6{fill:#FFC69F;}
	.st7{fill:#EDEFF1;}
	.st8{fill:#D3D3D3;}
	.st9{fill:#C1C1C1;}
	.st10{fill:#466089;}
	.st11{fill:#FFB236;}
	.st12{fill:#FFE352;}
</style>
<path class="st0" d="M37.29,12.56c0,0,3,1.77,0,5.96c-3,4.19,3.18,7.89,3.18,7.89H27.51H14.54c0,0,6.17-3.7,3.18-7.89s0-5.96,0-5.96
	H37.29z"/>
<path class="st1" d="M20.24,25.21h14.53v25.3H20.24V25.21z"/>
<path class="st0" d="M41.43,24.01l-6.35-1.29l-5.14,15.44v12.35h10.59h0.3h7.72V30.42C48.54,27.49,45.66,24.9,41.43,24.01
	L41.43,24.01z M39,41.84l1.51-5.04v12.26L39,41.84z"/>
<path class="st2" d="M35.07,22.72l4.24,3.39l-3.03,2.69l0.76,5.28l-7.11,4.08L35.07,22.72z"/>
<path class="st0" d="M14.19,50.51h10.89V38.16l-5.14-15.44l-6.35,1.29v9.76l2.42,8.07L14.19,50.51z"/>
<path class="st2" d="M19.94,22.72L15.7,26.1l3.03,2.69l-0.76,5.28l7.11,4.08L19.94,22.72z"/>
<path class="st3" d="M27.51,29.49l5.01-6.87l-0.77-0.6v-3.59h-4.24h-4.24v3.59l-0.77,0.6L27.51,29.49z"/>
<path class="st4" d="M27.51,29.49l-2-0.56c-0.53-0.15-1.15-0.08-1.58,0.17l-2.89,1.68l-1.09-8.07l3.33-2.39v1.69l-0.76,0.6
	L27.51,29.49z"/>
<path class="st3" d="M18.76,10.17h-1c-0.91,0-1.62,0.53-1.5,1.13l0.39,1.97c0.08,0.4,0.59,0.69,1.2,0.69h0.91V10.17z"/>
<path class="st5" d="M23.27,18.43v1.88c1.3,0.39,2.75,0.61,4.27,0.61c1.5,0,2.92-0.21,4.21-0.59v-1.9h-4.24H23.27z"/>
<path class="st3" d="M36.31,14.15c0,3.19-3.93,5.78-8.78,5.78s-8.78-2.59-8.78-5.78V8.47h17.55V14.15z"/>
<path class="st0" d="M18.76,14.05l1.51-3.88h-1.51V14.05z"/>
<path class="st5" d="M27.99,15.84H26.5l0.59-1.57l0.88,0.15l-0.31,0.82h0.33V15.84z"/>
<path class="st0" d="M26.29,11.32c0,0-2.63-0.61-4.95,0.53c0,0,2.04-0.43,4.56,0.09L26.29,11.32z"/>
<path class="st0" d="M28.72,11.32c0,0,2.63-0.61,4.95,0.53c0,0-2.04-0.43-4.56,0.09L28.72,11.32z"/>
<path class="st5" d="M27.54,17.74c-0.94,0-1.56-0.23-1.59-0.24l0.45-0.52c0,0,0.45,0.16,1.14,0.16c0.69,0,1.13-0.16,1.14-0.16
	l0.45,0.52C29.09,17.51,28.47,17.74,27.54,17.74z"/>
<path class="st6" d="M31.77,15.15h-1.51c-0.33,0-0.61-0.18-0.61-0.4c0-0.22,0.27-0.4,0.61-0.4h1.51c0.33,0,0.61,0.18,0.61,0.4
	C32.38,14.97,32.11,15.15,31.77,15.15z"/>
<path class="st6" d="M23.3,15.15h1.51c0.33,0,0.61-0.18,0.61-0.4c0-0.22-0.27-0.4-0.61-0.4H23.3c-0.33,0-0.61,0.18-0.61,0.4
	C22.69,14.97,22.96,15.15,23.3,15.15z"/>
<path class="st0" d="M24.51,12.76c0,0-0.01,0-0.01,0c-0.09,0-0.83,0.02-1.2-0.2c0,0,0.09,0.29,0.43,0.5
	c-0.08,0.09-0.12,0.19-0.12,0.3c0,0.33,0.41,0.6,0.91,0.6s0.91-0.27,0.91-0.6S25.01,12.76,24.51,12.76L24.51,12.76z"/>
<path class="st0" d="M30.56,12.76c0,0,0.01,0,0.01,0c0.09,0,0.83,0.02,1.2-0.2c0,0-0.09,0.29-0.43,0.5c0.08,0.09,0.12,0.19,0.12,0.3
	c0,0.33-0.41,0.6-0.91,0.6c-0.5,0-0.91-0.27-0.91-0.6S30.06,12.76,30.56,12.76L30.56,12.76z"/>
<path class="st3" d="M36.31,10.17h1c0.91,0,1.62,0.53,1.5,1.13l-0.39,1.97c-0.08,0.4-0.59,0.69-1.2,0.69h-0.91V10.17z"/>
<path class="st0" d="M36.31,14.05l-1.51-3.88h1.51V14.05z"/>
<path class="st7" d="M19.97,50.51h5.3l4.51-18.94L24.4,31L19.97,50.51z"/>
<path class="st7" d="M27.16,30.99l0.28-1c0,0,2.49,0.92,2.34,1.58L27.16,30.99z"/>
<g transform="matrix(.157 -.988 .988 .157 -96.828 514.562)">
	
		<ellipse transform="matrix(-0.9983 0.0581 -0.0581 -0.9983 994.9716 64.1473)" class="st8" cx="496.55" cy="46.53" rx="0.5" ry="2.71"/>
	
		<ellipse transform="matrix(-0.9984 0.0561 -0.0561 -0.9984 994.936 65.1251)" class="st9" cx="496.55" cy="46.53" rx="0.3" ry="2.1"/>
	
		<ellipse transform="matrix(-0.9985 0.0551 -0.0551 -0.9985 994.9169 65.6318)" class="st8" cx="496.55" cy="46.53" rx="0.17" ry="1.5"/>
</g>
<path class="st7" d="M15.32,50.51h5.79l1.52-19.73l-5.44-0.21L15.32,50.51z"/>
<path class="st7" d="M19.94,30.37l0.13-1.01c0,0,2.62,0.76,2.56,1.42L19.94,30.37z"/>
<ellipse transform="matrix(0.0378 -0.9993 0.9993 0.0378 -11.5058 49.4271)" class="st8" cx="19.91" cy="30.69" rx="0.5" ry="2.72"/>
<ellipse transform="matrix(0.0385 -0.9993 0.9993 0.0385 -11.5197 49.4038)" class="st9" cx="19.91" cy="30.69" rx="0.3" ry="2.12"/>
<ellipse transform="matrix(0.0389 -0.9992 0.9992 0.0389 -11.5268 49.3918)" class="st8" cx="19.91" cy="30.69" rx="0.17" ry="1.51"/>
<path class="st3" d="M28.62,39.98c0.19-0.14,0.32-0.32,0.35-0.52c0.07-0.5-0.48-0.94-1.24-0.99l-4.93-0.31l0.28-1.39l-1.97,0.52
	c-0.58,0.13-1.03,0.45-1.16,0.84l-0.23,0.66l-2.04,0.45l1.34,4.59l2.9-0.15c0.17,0.06,0.36,0.11,0.56,0.12l3.76,0.24
	c0.76,0.05,1.43-0.32,1.5-0.81c0.02-0.16-0.02-0.31-0.11-0.45c0.4-0.14,0.7-0.4,0.75-0.72c0.02-0.16-0.02-0.31-0.1-0.44
	c0.51-0.1,0.9-0.39,0.95-0.75l0.01-0.07C29.29,40.46,29.04,40.15,28.62,39.98L28.62,39.98z"/>
<path class="st0" d="M7.72,27.42L-0.7,40.47c-2.42,2.82,1.3,6.2,6.12,5.58l13.67-2l-1.51-5.17L8.9,39.95l4.69-6.18v-9.76l-0.28,0.06
	C10.79,24.6,8.76,25.83,7.72,27.42L7.72,27.42z"/>
<path class="st10" d="M5.49,41.35l1.07,0.38c0.86-1.05,2.34-1.78,2.34-1.78l0.5-0.66c-0.31-0.13-1.37-0.53-3.07-0.53v0.8
	c0.56-0.05,1.14-0.02,1.53,0.06C6.97,39.87,6.09,40.61,5.49,41.35L5.49,41.35z"/>
<path class="st4" d="M27.51,29.49l2-0.56c0.53-0.15,1.15-0.08,1.58,0.17l2.89,1.68l1.09-8.07l-3.33-2.39v1.69l0.76,0.6L27.51,29.49z
	"/>
<path class="st0" d="M17.7,8.47v1.69h3.98l0.86-1.49l0.86,1.49h3.27l0.86-1.49l0.86,1.49h3.27l0.86-1.49l0.86,1.49h3.98V8.47H17.7z"
	/>
<path class="st11" d="M32.08,1.65c0-0.63-0.78-1.14-1.73-1.14h-5.61C23.78,0.51,23,1.02,23,1.65c-3.57,1.2-6.2,3.71-6.2,6.38v0.45
	h21.48V8.03C38.28,5.36,35.65,2.85,32.08,1.65z"/>
<path class="st12" d="M27.54,6.78c-6.41,0-10.14,1.69-10.14,1.69h20.27C37.68,8.47,33.95,6.78,27.54,6.78z"/>
<path class="st12" d="M25.12,4.59c0-2.24-2.12-2.94-2.12-2.94c-0.34,0.11-0.67,0.24-0.99,0.38C24.08,2.9,25.12,4.59,25.12,4.59z"/>
<path class="st12" d="M29.96,4.59c0-2.24,2.12-2.94,2.12-2.94c0.34,0.11,0.67,0.24,0.99,0.38C31,2.9,29.96,4.59,29.96,4.59z"/>
<path class="st7" d="M13.07,50.51h5.73l-5.89-20.9l-5.38,0.58L13.07,50.51z"/>
<path class="st0" d="M15.7,39.11l-5.7,0.7l1.37,5.36l6.31-0.92L15.7,39.11z"/>
<path class="st7" d="M10.15,29.6l-0.21-1.01c0,0,2.81,0.36,2.97,1.01L10.15,29.6z"/>
<ellipse transform="matrix(0.9948 -0.1019 0.1019 0.9948 -2.994 1.197)" class="st8" cx="10.22" cy="29.9" rx="2.7" ry="0.5"/>
<ellipse transform="matrix(0.9946 -0.1039 0.1039 0.9946 -3.0518 1.2237)" class="st9" cx="10.22" cy="29.9" rx="2.1" ry="0.3"/>
<ellipse transform="matrix(0.9945 -0.105 0.105 0.9945 -3.0817 1.2375)" class="st8" cx="10.22" cy="29.9" rx="1.5" ry="0.17"/>
</svg>
