<?xml version="1.0" encoding="utf-8"?>
<!-- Generator: Adobe Illustrator 23.0.5, SVG Export Plug-In . SVG Version: 6.00 Build 0)  -->
<svg version="1.1" id="Layer_1" xmlns="http://www.w3.org/2000/svg" xmlns:xlink="http://www.w3.org/1999/xlink" x="0px" y="0px"
	 viewBox="0 0 329 323" style="enable-background:new 0 0 329 323;" xml:space="preserve">
<style type="text/css">
	.st0{fill:#F0CD00;}
	.st1{fill:#FFDE50;}
	.st2{fill:#FFEA94;}
	.st3{fill:#FAA300;}
	.st4{fill:#FFBD00;}
	.st5{fill:#F68E00;}
</style>
<g>
	<g>
		<path class="st0" d="M263.9,162.1c0,55.2-44.8,100-100,100c-29.1,0-55.3-12.4-73.6-32.3c-4.8-5.2-9-10.9-12.7-17.1
			c-8.7-14.8-13.7-32.2-13.7-50.6c0-55.2,44.8-100,100-100c18.5,0,35.8,5,50.6,13.7c6.1,3.6,11.9,7.9,17.1,12.7
			C251.4,106.8,263.9,133,263.9,162.1z"/>
		<path class="st1" d="M263.9,162.1c0,54-42.8,98-96.3,99.9c-53.5-2-96.3-45.9-96.3-99.9s42.8-98,96.3-99.9
			C221.1,64.1,263.9,108.1,263.9,162.1z"/>
		<path class="st2" d="M231.6,88.5L90.3,229.8c-4.8-5.2-9-10.9-12.7-17.1L214.5,75.8C220.6,79.4,226.4,83.7,231.6,88.5z"/>
		<path class="st2" d="M257,125.5L127.3,255.2c-9.2-3.6-17.7-8.5-25.3-14.5l140.4-140.4C248.4,107.8,253.4,116.4,257,125.5z"/>
		<path class="st3" d="M241.6,162.1c0,42.9-34.8,77.7-77.7,77.7c-14.9,0-28.9-4.2-40.8-11.5c-5.2-3.2-9.9-7-14.2-11.2
			c-3.1-3.1-6-6.5-8.6-10.2c-3.5-5-6.5-10.5-8.8-16.2c-3.4-8.6-5.3-17.8-5.4-27.6c0-0.3,0-0.6,0-1c0-42.9,34.8-77.7,77.7-77.7
			c0.3,0,0.6,0,1,0c9.7,0.1,19,2,27.6,5.4c5.8,2.3,11.2,5.2,16.2,8.8c3.6,2.6,7,5.4,10.2,8.6c4.3,4.3,8,9,11.2,14.2
			C237.4,133.2,241.6,147.1,241.6,162.1z"/>
		<path class="st4" d="M218.8,107.1L108.9,217c-3.1-3.1-6-6.5-8.6-10.2c-3.5-5-6.5-10.5-8.8-16.2c-3.4-8.6-5.3-17.8-5.4-27.6
			c0-0.3,0-0.6,0-1c0-42.9,34.8-77.7,77.7-77.7c0.3,0,0.6,0,1,0c9.7,0.1,19,2,27.6,5.4c5.8,2.3,11.2,5.2,16.2,8.8
			C212.3,101.1,215.7,104,218.8,107.1z"/>
		<path class="st5" d="M241.6,162.1c0,42.9-34.8,77.7-77.7,77.7c-1.5,0-2.9,0-4.4-0.1c40.9-2.3,73.3-36.1,73.3-77.6
			s-32.4-75.3-73.3-77.6c1.5-0.1,2.9-0.1,4.4-0.1C206.8,84.4,241.6,119.2,241.6,162.1z"/>
	</g>
	<path class="st5" d="M199.2,181.7c0-10.4-5.4-19.5-13.4-24.8c3.3-4.6,5.3-10.2,5.3-16.3c0-10.5-5.8-19.6-14.5-24.4v-10.1
		c0-4.5-3.7-8.2-8.2-8.2c-4.5,0-8.2,3.7-8.2,8.2v6.7h-9.9v-6.7c0-4.5-3.7-8.2-8.2-8.2c-4.5,0-8.2,3.7-8.2,8.2v6.7h-9.6
		c-4.5,0-8.2,3.7-8.2,8.2c0,4.5,3.7,8.2,8.2,8.2h2.8v31.1V195h-2.8c-4.5,0-8.2,3.7-8.2,8.2c0,4.5,3.7,8.2,8.2,8.2h9.6v6.7
		c0,4.5,3.7,8.2,8.2,8.2s8.2-3.7,8.2-8.2v-6.7h9.9v6.7c0,4.5,3.7,8.2,8.2,8.2s8.2-3.7,8.2-8.2v-7.5
		C189.5,207.3,199.2,195.6,199.2,181.7z M143.6,129.2h19.6c6.3,0,11.5,5.1,11.5,11.5s-5.1,11.5-11.5,11.5h-19.6L143.6,129.2
		L143.6,129.2z M169.6,195h-26v-26.6h19.6h6.3c7.3,0,13.3,6,13.3,13.3S176.9,195,169.6,195z"/>
	<path class="st2" d="M209.4,181.7c0-10.4-5.4-19.5-13.4-24.8c3.3-4.6,5.3-10.2,5.3-16.3c0-10.5-5.8-19.6-14.5-24.4v-10.1
		c0-4.5-3.7-8.2-8.2-8.2c-4.5,0-8.2,3.7-8.2,8.2v6.7h-9.9v-6.7c0-4.5-3.7-8.2-8.2-8.2c-4.5,0-8.2,3.7-8.2,8.2v6.7h-9.6
		c-4.5,0-8.2,3.7-8.2,8.2c0,4.5,3.7,8.2,8.2,8.2h2.8v31.1V195h-2.8c-4.5,0-8.2,3.7-8.2,8.2c0,4.5,3.7,8.2,8.2,8.2h9.6v6.7
		c0,4.5,3.7,8.2,8.2,8.2c4.5,0,8.2-3.7,8.2-8.2v-6.7h9.9v6.7c0,4.5,3.7,8.2,8.2,8.2c4.5,0,8.2-3.7,8.2-8.2v-7.5
		C199.7,207.3,209.4,195.6,209.4,181.7z M153.8,129.2h19.6c6.3,0,11.5,5.1,11.5,11.5s-5.1,11.5-11.5,11.5h-19.6V129.2z M179.8,195
		h-26v-26.6h19.6h6.3c7.3,0,13.3,6,13.3,13.3S187.1,195,179.8,195z"/>
</g>
</svg>
