<?xml version="1.0" encoding="utf-8"?>
<!-- Generator: Adobe Illustrator 23.0.5, SVG Export Plug-In . SVG Version: 6.00 Build 0)  -->
<svg version="1.1" id="filled_outline" xmlns="http://www.w3.org/2000/svg" xmlns:xlink="http://www.w3.org/1999/xlink" x="0px"
	 y="0px" viewBox="0 0 40 40" style="enable-background:new 0 0 40 40;" xml:space="preserve">
<style type="text/css">
	.st0{fill:#4976F2;}
	.st1{fill:#548AFF;}
	.st2{fill:#91C0FF;}
	.st3{fill:#7DAFFF;}
	.st4{fill:#FFC431;}
	.st5{fill:#FFB401;}
</style>
<path class="st0" d="M8.7,32v7.3H4c-1.8,0-3.3-1.5-3.3-3.3v-4H8.7z"/>
<path class="st1" d="M0.7,36c0-1.8,1.5-3.3,3.3-3.3h32c1.8,0,3.3-1.5,3.3-3.3V6.7H4c-1.8,0-3.3,1.5-3.3,3.3V36z"/>
<path class="st2" d="M4.7,10.7h2.7v2.7H4.7V10.7z"/>
<path class="st2" d="M26,10.7h2.7v2.7H26V10.7z"/>
<path class="st3" d="M39.3,29.3V6c0-1.8-1.5-3.3-3.3-3.3h-2.7V26H36C37.8,26,39.3,27.5,39.3,29.3z"/>
<path class="st4" d="M16,11.3l-2-2.7V5.3h5.3v3.3l-2,2.7H16z"/>
<g>
	<path class="st5" d="M15.3,5.3V2c0-0.7,0.6-1.3,1.3-1.3C17.4,0.7,18,1.3,18,2v3.3H15.3z"/>
	<path class="st5" d="M14,8.7l-4,16l0.7,2l2-1.3l3.3-14L14,8.7z"/>
	<path class="st5" d="M19.3,8.7l4,16l-0.7,2l-2-1.3l-3.3-14L19.3,8.7z"/>
</g>
<path d="M14.7,2v2.7H14c-0.4,0-0.7,0.3-0.7,0.7v3.3l-4,15.9c0,0.1,0,0.3,0,0.4l0.6,1.8L9.5,28H5.3v-2H4v2.7c0,0.4,0.3,0.7,0.7,0.7
	h8.7V28h-2.4l0.3-0.9l1.8-1.2c0.1-0.1,0.2-0.2,0.3-0.4L16.5,12h0.3L20,25.5c0,0.2,0.1,0.3,0.3,0.4l1.8,1.2l0.3,0.9h-1.7v1.3h8
	c0.4,0,0.7-0.3,0.7-0.7v-8H28V28h-4.2l-0.4-1.3l0.6-1.8c0-0.1,0-0.2,0-0.4L20,8.6V5.3c0-0.4-0.3-0.7-0.7-0.7h-0.7V2c0-1.1-0.9-2-2-2
	S14.7,0.9,14.7,2z M14.7,6h4v2.4L17,10.7h-0.7l-1.7-2.2V6z M12.1,24.9L11,25.6l-0.3-1l3.6-14.5l1,1.3L12.1,24.9z M22.3,25.6
	l-1.1-0.7l-3.2-13.4l1-1.3l3.6,14.5L22.3,25.6z M17.3,2v2.7H16V2c0-0.4,0.3-0.7,0.7-0.7C17,1.3,17.3,1.6,17.3,2z"/>
<circle cx="16.7" cy="8" r="0.7"/>
<path d="M36,2h-3.3C32.3,2,32,2.3,32,2.7V6H21.3v1.3H32V26c0,0.4,0.3,0.7,0.7,0.7H36c1.5,0,2.7,1.2,2.7,2.7c0,1.5-1.2,2.7-2.7,2.7H4
	c-1,0-1.9,0.4-2.7,1V10c0-1.5,1.2-2.7,2.7-2.7h8V6H4c-2.2,0-4,1.8-4,4v26c0,2.2,1.8,4,4,4h4.7c0.4,0,0.7-0.3,0.7-0.7v-6H36
	c2.2,0,4-1.8,4-4V6C40,3.8,38.2,2,36,2z M8,38.7H4c-1.5,0-2.7-1.2-2.7-2.7s1.2-2.7,2.7-2.7h4V38.7z M38.7,26.4c-0.7-0.7-1.7-1-2.7-1
	h-2.7v-22H36c1.5,0,2.7,1.2,2.7,2.7V26.4z"/>
<path d="M4,8.7V10H2.7v1.3H4V22h1.3v-8h2C7.7,14,8,13.7,8,13.3v-2h3.3V10h-6V8.7H4z M6.7,11.3v1.3H5.3v-1.3H6.7z"/>
<path d="M4,23.3h1.3v1.3H4V23.3z"/>
<path d="M28,8.7V10h-6v1.3h3.3v2c0,0.4,0.3,0.7,0.7,0.7h2v2.7h1.3v-5.3h1.3V10h-1.3V8.7H28z M28,12.7h-1.3v-1.3H28V12.7z"/>
<path d="M28,18h1.3v1.3H28V18z"/>
<path d="M14.7,28H16v1.3h-1.3V28z"/>
<path d="M17.3,28h1.3v1.3h-1.3V28z"/>
</svg>
