<?xml version="1.0" encoding="utf-8"?>
<!-- Generator: Adobe Illustrator 23.0.5, SVG Export Plug-In . SVG Version: 6.00 Build 0)  -->
<svg version="1.1" id="Capa_1" xmlns="http://www.w3.org/2000/svg" xmlns:xlink="http://www.w3.org/1999/xlink" x="0px" y="0px"
	 viewBox="0 0 16 16" style="enable-background:new 0 0 16 16;" xml:space="preserve">
<style type="text/css">
	.st0{fill:#87DBFD;}
	.st1{fill:#FD715C;}
	.st2{fill:#F5B556;}
	.st3{fill:#54DAC4;}
	.st4{fill:#97B4FC;}
	.st5{fill:#3C5666;}
	.st6{fill:#194451;}
</style>
<g id="surface1">
	<path class="st0" d="M16.1,9.2l-1.8-2.1c-0.1-0.1-0.2,0-0.2,0.1l0.2,1.1c-1.3-0.6-2.4-1.2-3.5-1.9C9.5,5.5,8.3,4.5,7.3,3.5
		C6.1,2.5,5.3,1.5,4.9,0.9C4.8,0.7,4.6,0.7,4.4,0.8C4.2,0.9,4.1,1.2,4.3,1.4c0.4,0.5,1.1,1.5,2.4,2.8c1.1,1,2.3,2,3.7,2.9
		c1.2,0.7,2.4,1.4,3.7,2l-0.8,0.7c-0.1,0.1,0,0.2,0.1,0.2l2.7-0.6C16.2,9.3,16.2,9.2,16.1,9.2z"/>
	<path class="st1" d="M3.1,14.6V4.7c0-0.1,0.1-0.2,0.2-0.2h1.3c0.1,0,0.2,0.1,0.2,0.2v9.9H3.1z"/>
	<path class="st2" d="M6.3,14.6V7.1C6.3,7.1,6.4,7,6.5,7h1.3C7.9,7,8,7.1,8,7.1v7.5H6.3z"/>
	<path class="st3" d="M12.7,14.6v-2.5c0-0.1,0.1-0.2,0.2-0.2h1.3c0.1,0,0.2,0.1,0.2,0.2v2.5H12.7z"/>
	<path class="st4" d="M9.5,14.6v-5c0-0.1,0.1-0.2,0.2-0.2H11c0.1,0,0.2,0.1,0.2,0.2v5H9.5z"/>
	<path class="st5" d="M15.7,15.3H1.8c-0.1,0-0.2-0.1-0.2-0.2v-0.7c0-0.1,0.1-0.2,0.2-0.2h13.9c0.1,0,0.2,0.1,0.2,0.2v0.7
		C15.9,15.2,15.8,15.3,15.7,15.3z"/>
	<path class="st6" d="M15.7,14.2h-1.3v1.1h1.3c0.1,0,0.2-0.1,0.2-0.2v-0.7C15.9,14.3,15.8,14.2,15.7,14.2z"/>
	<path d="M16.3,9L14.5,7c-0.1-0.1-0.2-0.1-0.4-0.1S14,7.1,14,7.2l0.1,0.6c-1.1-0.5-2.2-1.1-3.1-1.7C9.6,5.3,8.5,4.4,7.4,3.4
		c-1.3-1.2-2-2.2-2.3-2.6C5,0.6,4.9,0.5,4.7,0.5c-0.2,0-0.3,0-0.5,0.1C4,0.8,3.9,1.2,4.1,1.5C4.4,2,5.2,3,6.5,4.3
		c1.1,1,2.4,2,3.7,2.9c1.1,0.7,2.2,1.3,3.5,1.9l-0.5,0.5c-0.1,0.1-0.1,0.2-0.1,0.4c0.1,0.1,0.2,0.2,0.3,0.2c0,0,0,0,0.1,0l2.7-0.6
		c0.1,0,0.2-0.1,0.2-0.2C16.4,9.2,16.4,9.1,16.3,9z M13.8,9.6l0.4-0.4c0.1-0.1,0.1-0.1,0.1-0.2c0-0.1-0.1-0.1-0.1-0.2
		c-1.3-0.6-2.6-1.3-3.7-2C9.1,5.9,7.9,5,6.8,4c-1.3-1.2-2-2.2-2.4-2.7C4.4,1.2,4.4,1,4.5,1c0,0,0.1,0,0.1,0c0,0,0,0,0,0
		C4.7,1,4.7,1,4.8,1c0.3,0.4,1,1.4,2.3,2.7c1.1,1,2.3,1.9,3.6,2.8c1.1,0.7,2.3,1.4,3.6,1.9c0.1,0,0.2,0,0.2,0c0.1,0,0.1-0.1,0.1-0.2
		l-0.1-0.6l1.3,1.6L13.8,9.6z M16,9.3C16,9.3,16,9.3,16,9.3L16,9.3z"/>
	<path d="M15.7,14h-1.1v-0.4c0-0.1-0.1-0.2-0.2-0.2c-0.1,0-0.2,0.1-0.2,0.2V14h-1.2v-1.9h1.2v0.5c0,0.1,0.1,0.2,0.2,0.2
		c0.1,0,0.2-0.1,0.2-0.2v-0.5c0-0.2-0.2-0.4-0.4-0.4h-1.3c-0.2,0-0.4,0.2-0.4,0.4V14h-1V9.6c0-0.2-0.2-0.4-0.4-0.4H9.6
		c-0.2,0-0.4,0.2-0.4,0.4V14h-1V7.1c0-0.2-0.2-0.4-0.4-0.4H6.5c-0.2,0-0.4,0.2-0.4,0.4V14H5V7c0-0.1-0.1-0.2-0.2-0.2
		C4.7,6.8,4.6,6.9,4.6,7V14H3.4V4.7h1.2V6c0,0.1,0.1,0.2,0.2,0.2S5,6.1,5,6V4.7c0-0.2-0.2-0.4-0.4-0.4H3.3c-0.2,0-0.4,0.2-0.4,0.4
		V14H1.8c-0.2,0-0.4,0.2-0.4,0.4v0.7c0,0.2,0.2,0.4,0.4,0.4h13.9c0.2,0,0.4-0.2,0.4-0.4v-0.7C16.1,14.2,15.9,14,15.7,14z M9.7,9.7
		h1.2V14H9.7V9.7z M6.5,7.2h1.2V14H6.5V7.2z M15.6,15.1H1.8v-0.6h13.8V15.1z"/>
</g>
</svg>
