<?xml version="1.0" encoding="utf-8"?>
<!-- Generator: Adobe Illustrator 23.0.5, SVG Export Plug-In . SVG Version: 6.00 Build 0)  -->
<svg version="1.1" id="Capa_1" xmlns="http://www.w3.org/2000/svg" xmlns:xlink="http://www.w3.org/1999/xlink" x="0px" y="0px"
	 viewBox="0 0 20 20" style="enable-background:new 0 0 20 20;" xml:space="preserve">
<style type="text/css">
	.st0{fill:#FFCE00;}
	.st1{fill:#FFA81E;}
	.st2{fill:#FF9900;}
</style>
<path class="st0" d="M17.1,10.75l-6.56,6.29c-0.1,0.1-0.24,0.15-0.38,0.15H3.12c-0.48,0-0.73-0.56-0.38-0.89
	C4.74,14.39,9.32,10,9.32,10S4.74,5.61,2.74,3.69C2.39,3.36,2.64,2.8,3.12,2.8h7.03c0.14,0,0.28,0.06,0.38,0.15l2.98,2.86l3.58,3.44
	C17.53,9.66,17.53,10.34,17.1,10.75z"/>
<path class="st1" d="M12.99,10.75l-6.56,6.29c-0.1,0.1-0.24,0.15-0.38,0.15H3.12c-0.48,0-0.73-0.56-0.38-0.89
	C4.74,14.39,9.32,10,9.32,10S4.74,5.61,2.74,3.69C2.39,3.36,2.64,2.8,3.12,2.8h2.92c0.14,0,0.28,0.06,0.38,0.15l6.56,6.29
	C13.42,9.66,13.42,10.34,12.99,10.75z"/>
<path class="st2" d="M12.99,10.75l-6.56,6.29c-0.1,0.1-0.24,0.15-0.38,0.15H4.33c0.14,0,0.28-0.06,0.38-0.15l6.75-6.48
	c0.43-0.42,0.43-0.73,0-1.15L4.71,2.95C4.61,2.85,4.47,2.8,4.33,2.8h1.71c0.14,0,0.28,0.06,0.38,0.15l6.56,6.29
	C13.42,9.66,13.42,10.34,12.99,10.75z"/>
<path d="M19.69,19.09c-0.17,0-0.31,0.13-0.31,0.29v0.33c0,0.16,0.14,0.29,0.31,0.29c0.17,0,0.31-0.13,0.31-0.29v-0.33
	C20,19.22,19.86,19.09,19.69,19.09z"/>
<path d="M17.89,19.09c-0.17,0-0.31,0.13-0.31,0.29v0.33c0,0.16,0.14,0.29,0.31,0.29c0.17,0,0.31-0.13,0.31-0.29v-0.33
	C18.2,19.22,18.06,19.09,17.89,19.09z"/>
<path d="M16.09,19.09c-0.17,0-0.31,0.13-0.31,0.29v0.33c0,0.16,0.14,0.29,0.31,0.29c0.17,0,0.31-0.13,0.31-0.29v-0.33
	C16.39,19.22,16.26,19.09,16.09,19.09z"/>
<path d="M3.91,0.91c0.17,0,0.31-0.13,0.31-0.29V0.29C4.22,0.13,4.08,0,3.91,0C3.74,0,3.61,0.13,3.61,0.29v0.33
	C3.61,0.78,3.74,0.91,3.91,0.91z"/>
<path d="M2.41,0.62V0.29C2.41,0.13,2.28,0,2.11,0S1.8,0.13,1.8,0.29v0.33c0,0.16,0.14,0.29,0.31,0.29S2.41,0.78,2.41,0.62z"/>
<path d="M0.31,0C0.14,0,0,0.13,0,0.29v0.33c0,0.16,0.14,0.29,0.31,0.29s0.31-0.13,0.31-0.29V0.29C0.61,0.13,0.47,0,0.31,0z"/>
<path d="M17.31,9.04L13.73,5.6l-2.98-2.86c-0.16-0.15-0.38-0.24-0.6-0.24H3.12c-0.35,0-0.65,0.19-0.78,0.5
	C2.2,3.32,2.27,3.66,2.52,3.89C4.26,5.56,7.95,9.11,8.88,10c-0.93,0.89-4.62,4.43-6.36,6.11c-0.25,0.24-0.32,0.58-0.18,0.89
	c0.13,0.31,0.43,0.5,0.78,0.5h7.03c0.22,0,0.44-0.09,0.6-0.24l6.56-6.29c0,0,0,0,0,0C17.87,10.43,17.87,9.57,17.31,9.04z
	 M16.88,10.55L16.88,10.55l-6.56,6.29c-0.04,0.04-0.11,0.07-0.17,0.07H7.02C9,15.08,11,13.13,13.27,10.83
	c0.46-0.45,0.47-1.23,0.01-1.73c0,0-0.01-0.01-0.01-0.01c-1.24-1.19-2.4-2.31-3.59-3.43c-0.12-0.11-0.31-0.11-0.43,0
	c-0.12,0.12-0.12,0.3,0,0.41c1.18,1.12,2.34,2.24,3.58,3.42c0.21,0.23,0.26,0.68,0.01,0.92c0,0,0,0-0.01,0.01
	c-2.41,2.44-4.52,4.48-6.62,6.41c-0.02,0.02-0.04,0.05-0.06,0.07H3.12c-0.15,0-0.21-0.11-0.22-0.14c-0.01-0.03-0.05-0.15,0.05-0.25
	c2.01-1.93,6.58-6.31,6.58-6.31c0.12-0.11,0.12-0.3,0-0.41c-0.05-0.04-4.6-4.41-6.58-6.31c-0.1-0.1-0.07-0.22-0.05-0.25
	C2.92,3.2,2.97,3.09,3.12,3.09h3.03c0.02,0.03,0.04,0.05,0.06,0.08c0.32,0.28,0.64,0.6,0.94,0.9C7.49,4.4,7.83,4.75,8.19,5.06
	c0.06,0.05,0.13,0.08,0.2,0.08c0.08,0,0.17-0.03,0.23-0.1c0.11-0.12,0.1-0.31-0.02-0.41c-0.34-0.29-0.66-0.62-1-0.96
	C7.41,3.48,7.22,3.28,7.02,3.09h3.13c0.06,0,0.12,0.02,0.17,0.07l2.98,2.86l3.58,3.44C17.2,9.75,17.2,10.25,16.88,10.55z"/>
</svg>
