<svg id="Layer_5" enable-background="new 0 0 62 62" height="512" viewBox="0 0 62 62" width="512" xmlns="http://www.w3.org/2000/svg"><g><g><g><path d="m35 11c-2.09 0-4.11.32-6 .92v-2.92-4h10l.63 2.45c3.19.62 6.15 1.87 8.75 3.63l2.18-1.29 5.65 5.65-1.29 2.18c1.76 2.6 3.01 5.56 3.63 8.75l2.45.63v8l-2.45.63c-.62 3.19-1.87 6.15-3.63 8.75l1.29 2.18-5.65 5.65-2.18-1.29c-2.6 1.76-5.56 3.01-8.75 3.63l-.63 2.45h-8l-.63-2.45c-2.46-.48-4.79-1.34-6.92-2.51h-.01c.55-1.26.96-2.57 1.22-3.92 3.01 1.83 6.55 2.88 10.34 2.88 11.05 0 20-8.95 20-20s-8.95-20-20-20z" fill="#fcd770"/></g><g><circle cx="43" cy="41" fill="#ef7385" r="2"/></g><g><circle cx="48" cy="31" fill="#ef7385" r="3"/></g><g><circle cx="43" cy="21" fill="#ef7385" r="2"/></g><g><path d="m29 35v4c0 2.21-1.79 4-4 4v-7c0-.36-.1-.71-.27-1z" fill="#969faa"/></g><g><path d="m29 5v4h-14c2.21 0 4-1.79 4-4v-4h6c2.21 0 4 1.79 4 4z" fill="#969faa"/></g><g><path d="m15 9h-14v-4c0-2.21 1.79-4 4-4h6v4c0 1.1.45 2.1 1.17 2.83.73.72 1.73 1.17 2.83 1.17z" fill="#969faa"/></g><g><path d="m15 9h-14v27.56c.03-.87.74-1.56 1.61-1.56.97 0 1.87.35 2.57.94s1.2 1.42 1.36 2.37c.17.97.31 1.79.31 1.79.09.52.54.9 1.07.9.6 0 1.08-.48 1.08-1.08v-14.92h-4v-12h12v8 4h-4v7c0-.55.22-1.05.59-1.41.36-.37.86-.59 1.41-.59 1.1 0 2 .9 2 2v2c0-.55.22-1.05.59-1.41.36-.37.86-.59 1.41-.59 1.1 0 2 .9 2 2v2c0-.55.22-1.05.59-1.41.36-.37.86-.59 1.41-.59.74 0 1.38.4 1.73 1h4.27v-26z" fill="#69d6f4"/></g><g><path d="m7 53h16v8h-16z" fill="#ef7385"/></g><g><path d="m17 21v4h-4v-2c0-.55-.22-1.05-.59-1.41-.36-.37-.86-.59-1.41-.59-1.1 0-2 .9-2 2v2h-4v-12h12z" fill="#ef7385"/></g><g><path d="m21 36c0-.55.22-1.05.59-1.41.36-.37.86-.59 1.41-.59.74 0 1.38.4 1.73 1 .17.29.27.64.27 1v7 1.53c0 1.21-.11 2.41-.34 3.59-.26 1.35-.67 2.66-1.22 3.92-.13.32-.28.64-.44.96h-16l-1.6-1.2c-1.51-1.13-2.4-2.91-2.4-4.8 0-3.3-.63-6.58-1.86-9.64l-.02-.06c-.08-.2-.12-.41-.12-.62v-.06-.06c.03-.87.74-1.56 1.61-1.56.97 0 1.87.35 2.57.94s1.2 1.42 1.36 2.37c.17.97.31 1.79.31 1.79.09.52.54.9 1.07.9.6 0 1.08-.48 1.08-1.08v-14.92-2c0-1.1.9-2 2-2 .55 0 1.05.22 1.41.59.37.36.59.86.59 1.41v2 7c0-.55.22-1.05.59-1.41.36-.37.86-.59 1.41-.59 1.1 0 2 .9 2 2v2c0-.55.22-1.05.59-1.41.36-.37.86-.59 1.41-.59 1.1 0 2 .9 2 2z" fill="#f0d0b4"/></g><g><path d="m19 1v4c0 2.21-1.79 4-4 4-1.1 0-2.1-.45-2.83-1.17-.72-.73-1.17-1.73-1.17-2.83v-4z" fill="#4fc1e9"/></g></g><g><circle cx="15" cy="5" r="1"/><path d="m20 12h6v2h-6z"/><path d="m20 16h6v2h-6z"/><path d="m20 20h6v2h-6z"/><path d="m20 24h6v2h-6z"/><path d="m59.401 25.559c-.629-2.841-1.736-5.515-3.298-7.967l1.367-2.306-6.756-6.756-2.306 1.367c-2.452-1.562-5.126-2.669-7.967-3.298l-.665-2.599h-9.877c-.465-2.279-2.485-4-4.899-4h-20c-2.757 0-5 2.243-5 5v31.618h.002l-.002.059c0 .343.064.678.214 1.052 1.185 2.962 1.786 6.082 1.786 9.271 0 2.191 1.047 4.285 2.8 5.6l1.2.9v8.5h18v-8.562c1.771.869 3.63 1.536 5.559 1.964l.665 2.598h9.553l.665-2.599c2.841-.629 5.515-1.736 7.967-3.299l2.306 1.366 6.755-6.754-1.366-2.307c1.562-2.452 2.669-5.126 3.298-7.967l2.598-.664v-9.553zm-37.401 30.441h-14v-2h14zm-.116-22.78c-.345-1.275-1.501-2.22-2.884-2.22-.395 0-.77.081-1.116.22-.345-1.275-1.501-2.22-2.884-2.22-.352 0-.686.072-1 .184v-3.184h4v-14h-14v14h4v13.917c0 .085-.151.098-.165.015 0 0-.136-.816-.306-1.796-.417-2.397-2.484-4.136-4.915-4.136-.213 0-.416.032-.614.079v-24.079h26v24h-2.78c-.549-.609-1.337-1-2.22-1-.395 0-.77.081-1.116.22zm-13.884-10.22v1h-2v-10h10v10h-2v-1c0-1.654-1.346-3-3-3s-3 1.346-3 3zm4-18v-3h6v3c0 1.654-1.346 3-3 3s-3-1.346-3-3zm14 31h2v3c0 1.302-.839 2.402-2 2.816zm0 8.528v-.629c2.279-.465 4-2.484 4-4.899v-26.321c1.623-.442 3.3-.679 5-.679 10.477 0 19 8.523 19 19s-8.523 19-19 19c-3.25 0-6.43-.838-9.246-2.41.158-1.013.246-2.037.246-3.062zm2-39.528v3h-9.026c.635-.838 1.026-1.87 1.026-3v-3h5c1.654 0 3 1.346 3 3zm-23-3h5v3c0 1.13.391 2.162 1.026 3h-9.026v-3c0-1.654 1.346-3 3-3zm-1 45c0-3.444-.649-6.813-1.952-10.073-.032-.079-.048-.163-.048-.217l.004-.119c.01-.331.278-.591.61-.591 1.457 0 2.695 1.043 2.945 2.479.169.971.304 1.779.304 1.78.168 1.01 1.032 1.741 2.054 1.741 1.149 0 2.083-.935 2.083-2.083v-16.917c0-.551.449-1 1-1s1 .449 1 1v9 8h2v-8c0-.551.449-1 1-1s1 .449 1 1v2 6h2v-6c0-.552.449-1 1-1s1 .448 1 1v2 4h2v-4c0-.552.449-1 1-1s1 .448 1 1v8.528c0 2.567-.569 5.136-1.638 7.472h-15.029l-1.333-1c-1.252-.939-2-2.435-2-4zm4 13v-2h14v2zm52-25.776-2.311.591-.121.621c-.589 3.018-1.758 5.84-3.473 8.388l-.353.524 1.215 2.051-4.56 4.559-2.05-1.215-.524.353c-2.548 1.716-5.37 2.884-8.388 3.474l-.62.121-.591 2.309h-6.447l-.591-2.311-.62-.121c-2.04-.399-4-1.085-5.852-2.012.236-.628.438-1.268.61-1.917 2.975 1.547 6.293 2.361 9.676 2.361 11.58 0 21-9.421 21-21 0-11.58-9.42-21-21-21-1.695 0-3.37.209-5 .607v-4.607h8.224l.591 2.311.62.121c3.018.589 5.84 1.758 8.388 3.473l.524.353 2.05-1.215 4.559 4.559-1.215 2.05.353.524c1.715 2.548 2.884 5.37 3.473 8.388l.121.62 2.312.592z"/><path d="m44 31c0 2.206 1.794 4 4 4s4-1.794 4-4-1.794-4-4-4-4 1.794-4 4zm4-2c1.103 0 2 .897 2 2s-.897 2-2 2-2-.897-2-2 .897-2 2-2z"/><path d="m43 24c1.654 0 3-1.346 3-3s-1.346-3-3-3-3 1.346-3 3 1.346 3 3 3zm0-4c.551 0 1 .449 1 1s-.449 1-1 1-1-.449-1-1 .449-1 1-1z"/><path d="m43 38c-1.654 0-3 1.346-3 3s1.346 3 3 3 3-1.346 3-3-1.346-3-3-3zm0 4c-.551 0-1-.448-1-1s.449-1 1-1 1 .448 1 1-.449 1-1 1z"/><path d="m32 30h10v2h-10z"/><path d="m32 20h6v2h-6z"/><path d="m32 40h6v2h-6z"/><path d="m32 34h6v2h-6z"/><path d="m40 34h2v2h-2z"/><path d="m32 26h6v2h-6z"/><path d="m40 26h2v2h-2z"/></g></g></svg>