<svg height="512" viewBox="0 0 64 64" width="512" xmlns="http://www.w3.org/2000/svg"><g id="Layer_18" data-name="Layer 18"><path d="m40 56-2-6h-12l-2 6z" fill="#474747"/><path d="m58 8a4 4 0 0 1 4 4v30h-60v-30a4 4 0 0 1 4-4z" fill="#ccc"/><path d="m2 12v26h54v-30h-50a4 4 0 0 0 -4 4z" fill="#f2f2f2"/><path d="m62 42v4a4 4 0 0 1 -4 4h-52a4 4 0 0 1 -4-4v-4z" fill="#686868"/><path d="m36 34v-16h-3.348a12.95 12.95 0 0 1 -2.652 5.307v10.693z" fill="#6bc13b"/><path d="m32 31a1 1 0 0 0 1-1v-12h-.348a12.95 12.95 0 0 1 -2.652 5.307v7.693z" fill="#7bdf45"/><path d="m26 34v-7.464a12.951 12.951 0 0 1 -6 1.464v6z" fill="#7bdf45"/><circle cx="20" cy="15" fill="#f9d266" r="13"/><path d="m30 14a12.988 12.988 0 0 0 -7.463-11.748 12.991 12.991 0 0 0 -8.074 24.5 12.991 12.991 0 0 0 15.537-12.752z" fill="#fce797"/><path d="m24.326 15a4.483 4.483 0 0 0 -1.326-7.724v-2.276h-2v2h-2v-2h-2v2h-1a1 1 0 0 0 -1 1v14a1 1 0 0 0 1 1h1v2h2v-2h2v2h2v-2.276a4.483 4.483 0 0 0 1.326-7.724zm-2.826 6h-4.5v-5h4.5a2.5 2.5 0 0 1 0 5zm0-7h-4.5v-5h4.5a2.5 2.5 0 0 1 0 5z" fill="#f4a93c"/><path d="m23 56h18a4 4 0 0 1 4 4v2a0 0 0 0 1 0 0h-26a0 0 0 0 1 0 0v-2a4 4 0 0 1 4-4z" fill="#686868"/><path d="m18 34h40v4h-40z" fill="#3b5892"/><path d="m56 35v-1h-38v2h37a1 1 0 0 0 1-1z" fill="#4c6cb5"/><path d="m56 34v-32h-6v32" fill="#4d8c28"/><path d="m53 30v-28h-3v29h2a1 1 0 0 0 1-1z" fill="#559b2d"/><path d="m46 34v-22h-6v22" fill="#559b2d"/><path d="m43 30v-18h-3v19h2a1 1 0 0 0 1-1z" fill="#6bc13b"/><path d="m31 45h2v2h-2z" fill="#f2f2f2"/><path d="m23 30v-2.356a13.014 13.014 0 0 1 -3 .356v3h2a1 1 0 0 0 1-1z" fill="#92ed5d"/><path d="m58 7h-1v-5a1 1 0 0 0 -1-1h-6a1 1 0 0 0 -1 1v5h-17.527a13.969 13.969 0 0 0 -22.946 0h-2.527a5.006 5.006 0 0 0 -5 5v34a5.006 5.006 0 0 0 5 5h18.613l-1.333 4h-.28a5.006 5.006 0 0 0 -5 5v2a1 1 0 0 0 1 1h26a1 1 0 0 0 1-1v-2a5.006 5.006 0 0 0 -5-5h-.28l-1.333-4h18.613a5.006 5.006 0 0 0 5-5v-34a5.006 5.006 0 0 0 -5-5zm-37 21.949a13.863 13.863 0 0 0 4-.888v4.939h-4zm12.41-9.949h1.59v14h-4v-9.368a13.969 13.969 0 0 0 2.41-4.632zm-4.41 14h-2v-5.894a14.072 14.072 0 0 0 2-1.4zm28 2v2h-38v-2zm-12-2h-4v-20h4zm10-30v30h-4v-30zm-6 6v24h-2v-21a1 1 0 0 0 -1-1h-6a1 1 0 0 0 -1 1v21h-2v-15a1 1 0 0 0 -1-1h-2.16a13.5 13.5 0 0 0 -1.21-8zm-29-6a12 12 0 1 1 -12 12 12.013 12.013 0 0 1 12-12zm-14 6h1.37a13.952 13.952 0 0 0 11.63 19.949v4.051h-1a1 1 0 0 0 -1 1v4a1 1 0 0 0 1 1h40a1 1 0 0 0 1-1v-4a1 1 0 0 0 -1-1h-1v-24h1a3 3 0 0 1 3 3v29h-58v-29a3 3 0 0 1 3-3zm38 51v1h-24v-1a3 3 0 0 1 3-3h18a3 3 0 0 1 3 3zm-5.387-5h-13.226l1.333-4h10.56zm19.387-6h-52a3 3 0 0 1 -3-3v-3h58v3a3 3 0 0 1 -3 3z"/><path d="m16 23h1v2h2v-2h2v2h2v-2.276a4.482 4.482 0 0 0 1.325-7.724 4.482 4.482 0 0 0 -1.325-7.724v-2.276h-2v2h-2v-2h-2v2h-1a1 1 0 0 0 -1 1v14a1 1 0 0 0 1 1zm1-14h4.5a2.5 2.5 0 0 1 0 5h-4.5zm0 7h4.5a2.5 2.5 0 0 1 0 5h-4.5z"/><path d="m31 45h2v2h-2z"/></g></svg>