<?xml version="1.0" encoding="utf-8"?>
<!-- Generator: Adobe Illustrator 23.0.5, SVG Export Plug-In . SVG Version: 6.00 Build 0)  -->
<svg version="1.1" id="Capa_1" xmlns="http://www.w3.org/2000/svg" xmlns:xlink="http://www.w3.org/1999/xlink" x="0px" y="0px"
	 viewBox="0 0 20 20" style="enable-background:new 0 0 20 20;" xml:space="preserve">
<style type="text/css">
	.st0{fill:#EAB14D;}
	.st1{fill:#E49542;}
	.st2{fill:#F4FBFF;}
	.st3{fill:#DAF1F4;}
	.st4{fill:#365E7D;}
</style>
<g>
	<circle class="st0" cx="10" cy="10" r="9.7"/>
	<path class="st1" d="M10,0.3c-0.2,0-0.3,0-0.5,0c5.1,0.3,9.2,4.5,9.2,9.7s-4.1,9.4-9.2,9.7c0.2,0,0.3,0,0.5,0
		c5.4,0,9.7-4.3,9.7-9.7S15.4,0.3,10,0.3z"/>
	<circle class="st2" cx="10" cy="10" r="7.6"/>
	<path class="st3" d="M10,2.4c-0.2,0-0.4,0-0.6,0c3.9,0.3,6.9,3.6,6.9,7.5s-3.1,7.2-6.9,7.5c0.2,0,0.4,0,0.6,0
		c4.2,0,7.6-3.4,7.6-7.6S14.2,2.4,10,2.4z"/>
	<circle class="st4" cx="10" cy="10" r="0.8"/>
	<g>
		<path d="M10,4.8c0.2,0,0.3-0.1,0.3-0.3V4c0-0.2-0.1-0.3-0.3-0.3C9.8,3.7,9.7,3.9,9.7,4v0.4C9.7,4.6,9.8,4.8,10,4.8z"/>
		<path d="M14.4,5.6c-0.1-0.1-0.3-0.1-0.4,0l-0.3,0.3c-0.1,0.1-0.1,0.3,0,0.4c0.1,0.1,0.1,0.1,0.2,0.1c0.1,0,0.1,0,0.2-0.1L14.4,6
			C14.5,5.9,14.5,5.7,14.4,5.6L14.4,5.6z"/>
		<path d="M15.5,9.7c-0.2,0-0.3,0.1-0.3,0.3s0.1,0.3,0.3,0.3h0.4c0.2,0,0.3-0.1,0.3-0.3c0-0.2-0.1-0.3-0.3-0.3H15.5z"/>
		<path d="M14.1,13.7c-0.1-0.1-0.3-0.1-0.4,0c-0.1,0.1-0.1,0.3,0,0.4l0.3,0.3c0.1,0.1,0.1,0.1,0.2,0.1c0.1,0,0.1,0,0.2-0.1
			c0.1-0.1,0.1-0.3,0-0.4L14.1,13.7z"/>
		<path d="M9.7,15.5v0.4c0,0.2,0.1,0.3,0.3,0.3c0.2,0,0.3-0.1,0.3-0.3v-0.4c0-0.2-0.1-0.3-0.3-0.3C9.8,15.2,9.7,15.3,9.7,15.5
			L9.7,15.5z"/>
		<path d="M5.9,13.7L5.6,14c-0.1,0.1-0.1,0.3,0,0.4c0.1,0.1,0.1,0.1,0.2,0.1s0.1,0,0.2-0.1l0.3-0.3c0.1-0.1,0.1-0.3,0-0.4
			C6.2,13.5,6,13.5,5.9,13.7L5.9,13.7z"/>
		<path d="M4,9.7c-0.2,0-0.3,0.1-0.3,0.3c0,0.2,0.1,0.3,0.3,0.3h0.4c0.2,0,0.3-0.1,0.3-0.3c0-0.2-0.1-0.3-0.3-0.3L4,9.7z"/>
		<path d="M6.3,5.9L6,5.6c-0.1-0.1-0.3-0.1-0.4,0C5.5,5.7,5.5,5.9,5.6,6l0.3,0.3C5.9,6.3,6,6.4,6.1,6.4s0.1,0,0.2-0.1
			C6.4,6.2,6.4,6,6.3,5.9z"/>
		<path d="M10.8,10.7l2.1,1.1c0.1,0.1,0.3,0,0.4-0.1c0.1-0.1,0-0.3-0.1-0.4l-2.1-1.1c0-0.1,0-0.1,0-0.2c0-0.5-0.3-0.9-0.8-1V6
			c0-0.2-0.1-0.3-0.3-0.3C9.8,5.7,9.7,5.8,9.7,6v3C9.3,9.1,9.1,9.3,9,9.7H7.5c-0.2,0-0.3,0.1-0.3,0.3c0,0.2,0.1,0.3,0.3,0.3H9
			c0.1,0.5,0.5,0.8,1,0.8C10.3,11.1,10.6,10.9,10.8,10.7L10.8,10.7z M10,10.5c-0.3,0-0.5-0.2-0.5-0.5c0-0.3,0.2-0.5,0.5-0.5
			c0.3,0,0.5,0.2,0.5,0.5C10.5,10.3,10.3,10.5,10,10.5z"/>
		<path d="M17.6,9.7c0.2,0,0.3-0.2,0.3-0.3c-0.2-2-1-3.8-2.5-5.1C13.9,2.9,12,2.1,10,2.1c-4.3,0-7.9,3.5-7.9,7.9s3.5,7.9,7.9,7.9
			c4.1,0,7.5-3.2,7.8-7.2c0-0.2-0.1-0.3-0.3-0.3c-0.2,0-0.3,0.1-0.3,0.3c-0.3,3.8-3.4,6.7-7.2,6.7c-4,0-7.3-3.3-7.3-7.3
			S6,2.7,10,2.7c1.8,0,3.6,0.7,5,1.9c1.3,1.2,2.2,2.9,2.3,4.8C17.3,9.6,17.4,9.7,17.6,9.7L17.6,9.7z"/>
		<path d="M17.1,2.9C15.2,1,12.7,0,10,0C8.1,0,6.2,0.5,4.6,1.6C4.5,1.7,4.4,1.8,4.5,2c0.1,0.1,0.3,0.2,0.4,0.1
			c1.5-1,3.3-1.5,5.1-1.5c2.5,0,4.9,1,6.7,2.8s2.8,4.1,2.8,6.7c0,5.2-4.2,9.4-9.4,9.4c-0.9,0-1.8-0.1-2.7-0.4c-0.2,0-0.3,0-0.4,0.2
			c0,0.2,0,0.3,0.2,0.4C8,19.9,9,20,10,20c5.5,0,10-4.5,10-10C20,7.3,19,4.8,17.1,2.9L17.1,2.9z"/>
		<path d="M6.2,18.6c-3.4-1.5-5.6-4.9-5.6-8.6c0-2.8,1.2-5.5,3.4-7.3c0.1-0.1,0.1-0.3,0-0.4c-0.1-0.1-0.3-0.1-0.4,0
			C1.3,4.2,0,7,0,10c0,4,2.3,7.6,6,9.2c0,0,0.1,0,0.1,0c0.1,0,0.2-0.1,0.3-0.2C6.4,18.9,6.3,18.7,6.2,18.6L6.2,18.6z"/>
	</g>
</g>
</svg>
