<?xml version="1.0" encoding="utf-8"?>
<!-- Generator: Adobe Illustrator 23.0.5, SVG Export Plug-In . SVG Version: 6.00 Build 0)  -->
<svg version="1.1" id="Capa_1" xmlns="http://www.w3.org/2000/svg" xmlns:xlink="http://www.w3.org/1999/xlink" x="0px" y="0px"
	 viewBox="0 0 15 15" style="enable-background:new 0 0 15 15;" xml:space="preserve">
<style type="text/css">
	.st0{fill:#FCBC04;}
	.st1{fill:#E59730;}
	.st2{fill:#F89C8D;}
	.st3{fill:#F9E109;}
	.st4{fill:#84D2F4;}
	.st5{fill:#57B7EB;}
	.st6{fill:#F8664F;}
</style>
<g id="Flat">
	<g id="Stroke_copy_2">
		<g>
			<g>
				<path class="st0" d="M5.9,5.8l1.7-1.4L8,4.8L6.2,6.2L5.9,5.8z"/>
				<path class="st0" d="M8,4.1l1.7-2.2l0.4,0.3L8.4,4.4L8,4.1z"/>
				<path class="st0" d="M10.2,2.2l0.2-0.5l1.9,0.8L12.1,3L10.2,2.2z"/>
				<path class="st0" d="M12.4,2.5l1.7-1.9l0.4,0.3l-1.7,1.9L12.4,2.5z"/>
			</g>
			<g>
				<path class="st0" d="M4.9,10.3l0.7-0.7l2.2,2.2l-0.7,0.7L4.9,10.3z"/>
				<path class="st1" d="M6.5,11.4c0.1-0.2,0.2-0.4,0.3-0.6L5.7,9.6l-0.7,0.7l2.2,2.2l0.7-0.7l-0.3-0.3C7.2,11.7,6.8,11.6,6.5,11.4z
					"/>
				<path class="st2" d="M7.1,12.5l0.7-0.7c0.2-0.2,0.5-0.2,0.7,0l1.5,1.5c0.4,0.4,0.4,1.1,0,1.5c-0.4,0.4-1.1,0.4-1.5,0l-1.5-1.5
					C6.9,13.1,6.9,12.7,7.1,12.5z"/>
				<circle class="st3" cx="3.6" cy="8.3" r="3.6"/>
				<path class="st0" d="M4.7,10.6C2.7,10.6,1,9,1,7C1,6.5,1.2,6,1.4,5.5C-0.2,6.7-0.5,9,0.8,10.5c1.2,1.6,3.5,1.9,5.1,0.6
					c0.4-0.3,0.8-0.8,1-1.3C6.3,10.4,5.5,10.6,4.7,10.6z"/>
				<circle class="st4" cx="3.6" cy="8.3" r="2.6"/>
				<path class="st5" d="M3.6,5.7C2.2,5.7,1,6.9,1,8.3s1.2,2.6,2.6,2.6s2.6-1.2,2.6-2.6S5,5.7,3.6,5.7z M4.4,9.9
					C3,9.9,1.8,8.7,1.8,7.3c0-0.2,0-0.4,0.1-0.6C3,5.9,4.7,6.2,5.5,7.3c0.3,0.4,0.5,1,0.5,1.5c0,0.2,0,0.4-0.1,0.6
					C5.5,9.7,4.9,9.9,4.4,9.9z"/>
				<circle class="st3" cx="3.6" cy="8.1" r="0.8"/>
				<path class="st3" d="M4.7,9.6c0-0.4-0.3-0.8-0.8-0.8H3.4c-0.4,0-0.8,0.3-0.8,0.8v1.1C3.2,11,4,11,4.7,10.7V9.6z"/>
				<g>
					<path class="st0" d="M4.1,10.1c-0.6,0-1-0.5-1-1v0c0.3,0.1,0.6,0,0.8-0.2c0,0,0,0-0.1,0H3.4c-0.4,0-0.8,0.3-0.8,0.8v1.1
						C3.2,11,4,11,4.7,10.7v-0.6H4.1z"/>
					<path class="st0" d="M4.4,9.9c-0.6,0-1.2-0.2-1.7-0.6C2.6,9.3,2.6,9.5,2.6,9.6v1.1C3.2,11,4,11,4.7,10.7V9.9
						C4.6,9.9,4.5,9.9,4.4,9.9z"/>
					<path class="st0" d="M4.1,8.3C3.7,8.3,3.4,8,3.4,7.6c0-0.1,0-0.2,0-0.2C3,7.4,2.8,7.9,2.9,8.3c0.1,0.4,0.6,0.6,1,0.5
						c0.3-0.1,0.4-0.3,0.5-0.5C4.3,8.3,4.2,8.3,4.1,8.3L4.1,8.3z"/>
				</g>
				<path class="st1" d="M3.2,9.6C3,9.5,2.9,9.4,2.7,9.2C2.6,9.3,2.6,9.5,2.6,9.6v1.1C3.2,11,4,11,4.7,10.7v-0.6H4.1
					C3.8,10.1,3.4,9.9,3.2,9.6L3.2,9.6z"/>
				<path class="st6" d="M10.3,14c-0.4,0.4-1.1,0.4-1.5,0l-1.5-1.5c0,0-0.1-0.1-0.1-0.1l-0.2,0.2c-0.2,0.2-0.2,0.5,0,0.7
					c0,0,0,0,0,0l1.5,1.5c0.4,0.4,1.1,0.4,1.5,0C10.3,14.5,10.4,14.2,10.3,14C10.3,13.9,10.3,13.9,10.3,14L10.3,14z"/>
				<path class="st3" d="M7.3,13.5L8.8,12l0.4,0.4l-1.5,1.5L7.3,13.5z"/>
				<path class="st0" d="M7.3,13.5l0.5-0.5l0.4,0.4l-0.5,0.5L7.3,13.5z"/>
			</g>
			<path class="st4" d="M7.8,6.8h1v2.8h-1V6.8z"/>
			<path class="st4" d="M9.8,4.4h1v5.2h-1V4.4z"/>
			<path class="st4" d="M11.9,5.5h1v4.1h-1V5.5z"/>
			<path class="st4" d="M14,2.9h1v6.7h-1V2.9z"/>
			<circle class="st2" cx="8" cy="4.4" r="0.5"/>
			<path class="st2" d="M3.4,0L1,1.6h1v2.1h2.6V1.6h1L3.4,0z"/>
			<path class="st6" d="M4.4,2.9c-0.6,0-1-0.5-1-1V0L1,1.6h1v2.1h2.6V2.9H4.4z"/>
			<path class="st6" d="M8.3,4.7C8,4.7,7.8,4.5,7.8,4.2c0-0.1,0-0.1,0-0.2C7.5,4.1,7.4,4.4,7.5,4.7C7.7,4.9,8,5,8.2,4.9
				c0.1-0.1,0.2-0.1,0.3-0.3C8.4,4.7,8.3,4.7,8.3,4.7z"/>
			<circle class="st2" cx="10.1" cy="1.9" r="0.5"/>
			<path class="st6" d="M10.3,2.1c-0.3,0-0.5-0.2-0.5-0.5c0-0.1,0-0.1,0-0.2C9.6,1.5,9.5,1.8,9.6,2.1c0.1,0.3,0.4,0.4,0.7,0.3
				c0.1-0.1,0.2-0.1,0.3-0.3C10.5,2.1,10.4,2.1,10.3,2.1z"/>
			<circle class="st2" cx="12.4" cy="2.9" r="0.5"/>
			<path class="st6" d="M12.7,3.1c-0.3,0-0.5-0.2-0.5-0.5c0-0.1,0-0.1,0-0.2c-0.3,0.1-0.4,0.4-0.3,0.7s0.4,0.4,0.7,0.3
				c0.1-0.1,0.2-0.1,0.3-0.3C12.8,3.1,12.7,3.1,12.7,3.1z"/>
			<circle class="st2" cx="14.5" cy="0.6" r="0.5"/>
			<path class="st6" d="M14.7,0.8c-0.3,0-0.5-0.2-0.5-0.5c0-0.1,0-0.1,0-0.2C14,0.2,13.9,0.5,14,0.8s0.4,0.4,0.7,0.3
				C14.8,1,14.9,0.9,15,0.8C14.9,0.8,14.8,0.8,14.7,0.8z"/>
			<path class="st5" d="M8.3,8.3V6.8H7.8v2.8h1V9C8.5,8.9,8.3,8.6,8.3,8.3z"/>
			<path class="st5" d="M10.3,8.3V4.4H9.8v5.2h1V9C10.6,8.9,10.3,8.6,10.3,8.3z"/>
			<path class="st5" d="M12.4,8.6V5.5h-0.5v4.4h1V9.3C12.6,9.2,12.4,8.9,12.4,8.6z"/>
			<path class="st5" d="M14.5,8.3V2.9H14v6.7h1V9C14.7,8.9,14.5,8.6,14.5,8.3z"/>
		</g>
	</g>
</g>
</svg>
